<svg width="242" height="242" viewBox="0 0 242 242" fill="none" xmlns="http://www.w3.org/2000/svg">
<path d="M0 100C0 44.7715 44.7715 0 100 0H241V141C241 196.228 196.228 241 141 241H0V100Z" fill="white"/>
<path d="M165.71 0H75.71C55.6488 0.076433 36.4315 8.08165 22.2488 22.27C8.06609 36.4583 0.0684853 55.6788 0 75.74L0 241.45H165.71C185.778 241.381 205.005 233.378 219.194 219.187C233.384 204.996 241.384 185.768 241.45 165.7V0H165.71ZM163.9 167.27C159.724 173.02 154.143 177.603 147.69 180.58C137.37 185.76 128.04 185.76 120.49 185.76C111.134 185.976 101.831 184.299 93.14 180.83C84.5443 177.328 76.7624 172.093 70.28 165.45L90.38 146.14C95.13 151.14 100.76 156.66 107.25 159.23C111.974 161.085 117.043 161.897 122.11 161.61C126.6 161.37 131.51 160.56 135.23 157.86C139.86 154.49 142.12 147.86 139.83 142.47C137.83 137.85 133.72 136.04 129.25 134.54C118.96 131.08 108.12 129.66 97.82 126.25C90.45 123.8 83.32 120.18 79.17 113.32C75.3128 106.71 73.6171 99.0605 74.32 91.44C74.9084 85.1481 77.0266 79.0957 80.49 73.81C84.93 67.2 93.72 61.52 101.22 59C107.73 56.83 124.59 53.58 140.75 57.52C156.91 61.46 166.75 73.38 166.67 73.52C166.59 73.66 159.1 80.75 147.19 92.09C147 91.8 146.79 91.5 146.58 91.2C146.37 90.9 146.07 90.5 145.76 90.12C144.782 88.9376 143.737 87.8124 142.63 86.75C139.317 83.6913 135.38 81.3883 131.09 80C121.09 77.16 107.22 81.24 104.87 89.07C104.224 91.7303 104.58 94.5354 105.87 96.95C106.64 98.41 108.46 101.02 117.21 104.15C123.1 106.26 125.11 106.24 134.27 108.36C138.589 109.293 142.841 110.509 147 112C152.836 114.093 158.219 117.28 162.86 121.39C169.1 127.06 170.98 136.16 171.16 144.26C171.287 152.512 168.74 160.584 163.9 167.27ZM206.43 50C203.483 50 200.602 49.1261 198.152 47.4889C195.702 45.8517 193.792 43.5246 192.664 40.802C191.536 38.0794 191.241 35.0835 191.816 32.1932C192.391 29.3028 193.81 26.6479 195.894 24.5641C197.978 22.4803 200.633 21.0612 203.523 20.4863C206.413 19.9114 209.409 20.2064 212.132 21.3342C214.855 22.4619 217.182 24.3717 218.819 26.822C220.456 29.2723 221.33 32.1531 221.33 35.1C221.33 39.0517 219.76 42.8416 216.966 45.6359C214.172 48.4302 210.382 50 206.43 50Z" fill="#F25522"/>
</svg>
